<svg xmlns="http://www.w3.org/2000/svg" version="1.1" xmlns:xlink="http://www.w3.org/1999/xlink" xmlns:svgjs="http://svgjs.dev/svgjs" viewBox="0 0 800 800"><defs><linearGradient gradientTransform="rotate(270)" x1="50%" y1="0%" x2="50%" y2="100%" id="sssquiggly-grad"><stop stop-color="hsl(30, 100%, 50%)" stop-opacity="1" offset="0%"></stop><stop stop-color="hsl(30, 100%, 70%)" stop-opacity="1" offset="100%"></stop></linearGradient></defs><g stroke-width="2" stroke="url(#sssquiggly-grad)" fill="none" stroke-linecap="round" transform="matrix(1,0,0,1,0,50.38392639160156)"><path d="M10,10C21.805555555555557,16.458333333333336,40.97222222222223,47.041666666666664,66.66666666666667,41C92.36111111111111,34.958333333333336,105.55555555555557,-19,133.33333333333334,-19C161.11111111111111,-19,172.22222222222223,39.541666666666664,200,41C227.77777777777777,42.458333333333336,238.8888888888889,-10.958333333333334,266.6666666666667,-12C294.44444444444446,-13.041666666666666,305.5555555555556,38.291666666666664,333.33333333333337,36C361.11111111111114,33.708333333333336,372.22222222222223,-25.291666666666668,400,-23C427.77777777777777,-20.708333333333332,438.8888888888889,41.166666666666664,466.6666666666667,47C494.44444444444446,52.833333333333336,505.5555555555556,2.9166666666666665,533.3333333333334,5C561.1111111111111,7.083333333333334,572.2222222222222,61.791666666666664,600,57C627.7777777777778,52.208333333333336,638.8888888888889,-16.541666666666668,666.6666666666667,-18C694.4444444444446,-19.458333333333332,707.6388888888889,44.166666666666664,733.3333333333334,50C759.0277777777778,55.833333333333336,778.1944444444445,18.333333333333336,790,10"></path><path d="M10,10C21.805555555555557,16.458333333333336,40.97222222222223,47.041666666666664,66.66666666666667,41C92.36111111111111,34.958333333333336,105.55555555555557,-19,133.33333333333334,-19C161.11111111111111,-19,172.22222222222223,39.541666666666664,200,41C227.77777777777777,42.458333333333336,238.8888888888889,-10.958333333333334,266.6666666666667,-12C294.44444444444446,-13.041666666666666,305.5555555555556,38.291666666666664,333.33333333333337,36C361.11111111111114,33.708333333333336,372.22222222222223,-25.291666666666668,400,-23C427.77777777777777,-20.708333333333332,438.8888888888889,41.166666666666664,466.6666666666667,47C494.44444444444446,52.833333333333336,505.5555555555556,2.9166666666666665,533.3333333333334,5C561.1111111111111,7.083333333333334,572.2222222222222,61.791666666666664,600,57C627.7777777777778,52.208333333333336,638.8888888888889,-16.541666666666668,666.6666666666667,-18C694.4444444444446,-19.458333333333332,707.6388888888889,44.166666666666664,733.3333333333334,50C759.0277777777778,55.833333333333336,778.1944444444445,18.333333333333336,790,10" transform="matrix(1,0,0,1,0,665)"></path><path d="M10,10C21.805555555555557,16.458333333333336,40.97222222222223,47.041666666666664,66.66666666666667,41C92.36111111111111,34.958333333333336,105.55555555555557,-19,133.33333333333334,-19C161.11111111111111,-19,172.22222222222223,39.541666666666664,200,41C227.77777777777777,42.458333333333336,238.8888888888889,-10.958333333333334,266.6666666666667,-12C294.44444444444446,-13.041666666666666,305.5555555555556,38.291666666666664,333.33333333333337,36C361.11111111111114,33.708333333333336,372.22222222222223,-25.291666666666668,400,-23C427.77777777777777,-20.708333333333332,438.8888888888889,41.166666666666664,466.6666666666667,47C494.44444444444446,52.833333333333336,505.5555555555556,2.9166666666666665,533.3333333333334,5C561.1111111111111,7.083333333333334,572.2222222222222,61.791666666666664,600,57C627.7777777777778,52.208333333333336,638.8888888888889,-16.541666666666668,666.6666666666667,-18C694.4444444444446,-19.458333333333332,707.6388888888889,44.166666666666664,733.3333333333334,50C759.0277777777778,55.833333333333336,778.1944444444445,18.333333333333336,790,10" transform="matrix(1,0,0,1,0,630)"></path><path d="M10,10C21.805555555555557,16.458333333333336,40.97222222222223,47.041666666666664,66.66666666666667,41C92.36111111111111,34.958333333333336,105.55555555555557,-19,133.33333333333334,-19C161.11111111111111,-19,172.22222222222223,39.541666666666664,200,41C227.77777777777777,42.458333333333336,238.8888888888889,-10.958333333333334,266.6666666666667,-12C294.44444444444446,-13.041666666666666,305.5555555555556,38.291666666666664,333.33333333333337,36C361.11111111111114,33.708333333333336,372.22222222222223,-25.291666666666668,400,-23C427.77777777777777,-20.708333333333332,438.8888888888889,41.166666666666664,466.6666666666667,47C494.44444444444446,52.833333333333336,505.5555555555556,2.9166666666666665,533.3333333333334,5C561.1111111111111,7.083333333333334,572.2222222222222,61.791666666666664,600,57C627.7777777777778,52.208333333333336,638.8888888888889,-16.541666666666668,666.6666666666667,-18C694.4444444444446,-19.458333333333332,707.6388888888889,44.166666666666664,733.3333333333334,50C759.0277777777778,55.833333333333336,778.1944444444445,18.333333333333336,790,10" transform="matrix(1,0,0,1,0,595)"></path><path d="M10,10C21.805555555555557,16.458333333333336,40.97222222222223,47.041666666666664,66.66666666666667,41C92.36111111111111,34.958333333333336,105.55555555555557,-19,133.33333333333334,-19C161.11111111111111,-19,172.22222222222223,39.541666666666664,200,41C227.77777777777777,42.458333333333336,238.8888888888889,-10.958333333333334,266.6666666666667,-12C294.44444444444446,-13.041666666666666,305.5555555555556,38.291666666666664,333.33333333333337,36C361.11111111111114,33.708333333333336,372.22222222222223,-25.291666666666668,400,-23C427.77777777777777,-20.708333333333332,438.8888888888889,41.166666666666664,466.6666666666667,47C494.44444444444446,52.833333333333336,505.5555555555556,2.9166666666666665,533.3333333333334,5C561.1111111111111,7.083333333333334,572.2222222222222,61.791666666666664,600,57C627.7777777777778,52.208333333333336,638.8888888888889,-16.541666666666668,666.6666666666667,-18C694.4444444444446,-19.458333333333332,707.6388888888889,44.166666666666664,733.3333333333334,50C759.0277777777778,55.833333333333336,778.1944444444445,18.333333333333336,790,10" transform="matrix(1,0,0,1,0,560)"></path><path d="M10,10C21.805555555555557,16.458333333333336,40.97222222222223,47.041666666666664,66.66666666666667,41C92.36111111111111,34.958333333333336,105.55555555555557,-19,133.33333333333334,-19C161.11111111111111,-19,172.22222222222223,39.541666666666664,200,41C227.77777777777777,42.458333333333336,238.8888888888889,-10.958333333333334,266.6666666666667,-12C294.44444444444446,-13.041666666666666,305.5555555555556,38.291666666666664,333.33333333333337,36C361.11111111111114,33.708333333333336,372.22222222222223,-25.291666666666668,400,-23C427.77777777777777,-20.708333333333332,438.8888888888889,41.166666666666664,466.6666666666667,47C494.44444444444446,52.833333333333336,505.5555555555556,2.9166666666666665,533.3333333333334,5C561.1111111111111,7.083333333333334,572.2222222222222,61.791666666666664,600,57C627.7777777777778,52.208333333333336,638.8888888888889,-16.541666666666668,666.6666666666667,-18C694.4444444444446,-19.458333333333332,707.6388888888889,44.166666666666664,733.3333333333334,50C759.0277777777778,55.833333333333336,778.1944444444445,18.333333333333336,790,10" transform="matrix(1,0,0,1,0,525)"></path><path d="M10,10C21.805555555555557,16.458333333333336,40.97222222222223,47.041666666666664,66.66666666666667,41C92.36111111111111,34.958333333333336,105.55555555555557,-19,133.33333333333334,-19C161.11111111111111,-19,172.22222222222223,39.541666666666664,200,41C227.77777777777777,42.458333333333336,238.8888888888889,-10.958333333333334,266.6666666666667,-12C294.44444444444446,-13.041666666666666,305.5555555555556,38.291666666666664,333.33333333333337,36C361.11111111111114,33.708333333333336,372.22222222222223,-25.291666666666668,400,-23C427.77777777777777,-20.708333333333332,438.8888888888889,41.166666666666664,466.6666666666667,47C494.44444444444446,52.833333333333336,505.5555555555556,2.9166666666666665,533.3333333333334,5C561.1111111111111,7.083333333333334,572.2222222222222,61.791666666666664,600,57C627.7777777777778,52.208333333333336,638.8888888888889,-16.541666666666668,666.6666666666667,-18C694.4444444444446,-19.458333333333332,707.6388888888889,44.166666666666664,733.3333333333334,50C759.0277777777778,55.833333333333336,778.1944444444445,18.333333333333336,790,10" transform="matrix(1,0,0,1,0,490)"></path><path d="M10,10C21.805555555555557,16.458333333333336,40.97222222222223,47.041666666666664,66.66666666666667,41C92.36111111111111,34.958333333333336,105.55555555555557,-19,133.33333333333334,-19C161.11111111111111,-19,172.22222222222223,39.541666666666664,200,41C227.77777777777777,42.458333333333336,238.8888888888889,-10.958333333333334,266.6666666666667,-12C294.44444444444446,-13.041666666666666,305.5555555555556,38.291666666666664,333.33333333333337,36C361.11111111111114,33.708333333333336,372.22222222222223,-25.291666666666668,400,-23C427.77777777777777,-20.708333333333332,438.8888888888889,41.166666666666664,466.6666666666667,47C494.44444444444446,52.833333333333336,505.5555555555556,2.9166666666666665,533.3333333333334,5C561.1111111111111,7.083333333333334,572.2222222222222,61.791666666666664,600,57C627.7777777777778,52.208333333333336,638.8888888888889,-16.541666666666668,666.6666666666667,-18C694.4444444444446,-19.458333333333332,707.6388888888889,44.166666666666664,733.3333333333334,50C759.0277777777778,55.833333333333336,778.1944444444445,18.333333333333336,790,10" transform="matrix(1,0,0,1,0,455)"></path><path d="M10,10C21.805555555555557,16.458333333333336,40.97222222222223,47.041666666666664,66.66666666666667,41C92.36111111111111,34.958333333333336,105.55555555555557,-19,133.33333333333334,-19C161.11111111111111,-19,172.22222222222223,39.541666666666664,200,41C227.77777777777777,42.458333333333336,238.8888888888889,-10.958333333333334,266.6666666666667,-12C294.44444444444446,-13.041666666666666,305.5555555555556,38.291666666666664,333.33333333333337,36C361.11111111111114,33.708333333333336,372.22222222222223,-25.291666666666668,400,-23C427.77777777777777,-20.708333333333332,438.8888888888889,41.166666666666664,466.6666666666667,47C494.44444444444446,52.833333333333336,505.5555555555556,2.9166666666666665,533.3333333333334,5C561.1111111111111,7.083333333333334,572.2222222222222,61.791666666666664,600,57C627.7777777777778,52.208333333333336,638.8888888888889,-16.541666666666668,666.6666666666667,-18C694.4444444444446,-19.458333333333332,707.6388888888889,44.166666666666664,733.3333333333334,50C759.0277777777778,55.833333333333336,778.1944444444445,18.333333333333336,790,10" transform="matrix(1,0,0,1,0,420)"></path><path d="M10,10C21.805555555555557,16.458333333333336,40.97222222222223,47.041666666666664,66.66666666666667,41C92.36111111111111,34.958333333333336,105.55555555555557,-19,133.33333333333334,-19C161.11111111111111,-19,172.22222222222223,39.541666666666664,200,41C227.77777777777777,42.458333333333336,238.8888888888889,-10.958333333333334,266.6666666666667,-12C294.44444444444446,-13.041666666666666,305.5555555555556,38.291666666666664,333.33333333333337,36C361.11111111111114,33.708333333333336,372.22222222222223,-25.291666666666668,400,-23C427.77777777777777,-20.708333333333332,438.8888888888889,41.166666666666664,466.6666666666667,47C494.44444444444446,52.833333333333336,505.5555555555556,2.9166666666666665,533.3333333333334,5C561.1111111111111,7.083333333333334,572.2222222222222,61.791666666666664,600,57C627.7777777777778,52.208333333333336,638.8888888888889,-16.541666666666668,666.6666666666667,-18C694.4444444444446,-19.458333333333332,707.6388888888889,44.166666666666664,733.3333333333334,50C759.0277777777778,55.833333333333336,778.1944444444445,18.333333333333336,790,10" transform="matrix(1,0,0,1,0,385)"></path><path d="M10,10C21.805555555555557,16.458333333333336,40.97222222222223,47.041666666666664,66.66666666666667,41C92.36111111111111,34.958333333333336,105.55555555555557,-19,133.33333333333334,-19C161.11111111111111,-19,172.22222222222223,39.541666666666664,200,41C227.77777777777777,42.458333333333336,238.8888888888889,-10.958333333333334,266.6666666666667,-12C294.44444444444446,-13.041666666666666,305.5555555555556,38.291666666666664,333.33333333333337,36C361.11111111111114,33.708333333333336,372.22222222222223,-25.291666666666668,400,-23C427.77777777777777,-20.708333333333332,438.8888888888889,41.166666666666664,466.6666666666667,47C494.44444444444446,52.833333333333336,505.5555555555556,2.9166666666666665,533.3333333333334,5C561.1111111111111,7.083333333333334,572.2222222222222,61.791666666666664,600,57C627.7777777777778,52.208333333333336,638.8888888888889,-16.541666666666668,666.6666666666667,-18C694.4444444444446,-19.458333333333332,707.6388888888889,44.166666666666664,733.3333333333334,50C759.0277777777778,55.833333333333336,778.1944444444445,18.333333333333336,790,10" transform="matrix(1,0,0,1,0,350)"></path><path d="M10,10C21.805555555555557,16.458333333333336,40.97222222222223,47.041666666666664,66.66666666666667,41C92.36111111111111,34.958333333333336,105.55555555555557,-19,133.33333333333334,-19C161.11111111111111,-19,172.22222222222223,39.541666666666664,200,41C227.77777777777777,42.458333333333336,238.8888888888889,-10.958333333333334,266.6666666666667,-12C294.44444444444446,-13.041666666666666,305.5555555555556,38.291666666666664,333.33333333333337,36C361.11111111111114,33.708333333333336,372.22222222222223,-25.291666666666668,400,-23C427.77777777777777,-20.708333333333332,438.8888888888889,41.166666666666664,466.6666666666667,47C494.44444444444446,52.833333333333336,505.5555555555556,2.9166666666666665,533.3333333333334,5C561.1111111111111,7.083333333333334,572.2222222222222,61.791666666666664,600,57C627.7777777777778,52.208333333333336,638.8888888888889,-16.541666666666668,666.6666666666667,-18C694.4444444444446,-19.458333333333332,707.6388888888889,44.166666666666664,733.3333333333334,50C759.0277777777778,55.833333333333336,778.1944444444445,18.333333333333336,790,10" transform="matrix(1,0,0,1,0,315)"></path><path d="M10,10C21.805555555555557,16.458333333333336,40.97222222222223,47.041666666666664,66.66666666666667,41C92.36111111111111,34.958333333333336,105.55555555555557,-19,133.33333333333334,-19C161.11111111111111,-19,172.22222222222223,39.541666666666664,200,41C227.77777777777777,42.458333333333336,238.8888888888889,-10.958333333333334,266.6666666666667,-12C294.44444444444446,-13.041666666666666,305.5555555555556,38.291666666666664,333.33333333333337,36C361.11111111111114,33.708333333333336,372.22222222222223,-25.291666666666668,400,-23C427.77777777777777,-20.708333333333332,438.8888888888889,41.166666666666664,466.6666666666667,47C494.44444444444446,52.833333333333336,505.5555555555556,2.9166666666666665,533.3333333333334,5C561.1111111111111,7.083333333333334,572.2222222222222,61.791666666666664,600,57C627.7777777777778,52.208333333333336,638.8888888888889,-16.541666666666668,666.6666666666667,-18C694.4444444444446,-19.458333333333332,707.6388888888889,44.166666666666664,733.3333333333334,50C759.0277777777778,55.833333333333336,778.1944444444445,18.333333333333336,790,10" transform="matrix(1,0,0,1,0,280)"></path><path d="M10,10C21.805555555555557,16.458333333333336,40.97222222222223,47.041666666666664,66.66666666666667,41C92.36111111111111,34.958333333333336,105.55555555555557,-19,133.33333333333334,-19C161.11111111111111,-19,172.22222222222223,39.541666666666664,200,41C227.77777777777777,42.458333333333336,238.8888888888889,-10.958333333333334,266.6666666666667,-12C294.44444444444446,-13.041666666666666,305.5555555555556,38.291666666666664,333.33333333333337,36C361.11111111111114,33.708333333333336,372.22222222222223,-25.291666666666668,400,-23C427.77777777777777,-20.708333333333332,438.8888888888889,41.166666666666664,466.6666666666667,47C494.44444444444446,52.833333333333336,505.5555555555556,2.9166666666666665,533.3333333333334,5C561.1111111111111,7.083333333333334,572.2222222222222,61.791666666666664,600,57C627.7777777777778,52.208333333333336,638.8888888888889,-16.541666666666668,666.6666666666667,-18C694.4444444444446,-19.458333333333332,707.6388888888889,44.166666666666664,733.3333333333334,50C759.0277777777778,55.833333333333336,778.1944444444445,18.333333333333336,790,10" transform="matrix(1,0,0,1,0,245)"></path><path d="M10,10C21.805555555555557,16.458333333333336,40.97222222222223,47.041666666666664,66.66666666666667,41C92.36111111111111,34.958333333333336,105.55555555555557,-19,133.33333333333334,-19C161.11111111111111,-19,172.22222222222223,39.541666666666664,200,41C227.77777777777777,42.458333333333336,238.8888888888889,-10.958333333333334,266.6666666666667,-12C294.44444444444446,-13.041666666666666,305.5555555555556,38.291666666666664,333.33333333333337,36C361.11111111111114,33.708333333333336,372.22222222222223,-25.291666666666668,400,-23C427.77777777777777,-20.708333333333332,438.8888888888889,41.166666666666664,466.6666666666667,47C494.44444444444446,52.833333333333336,505.5555555555556,2.9166666666666665,533.3333333333334,5C561.1111111111111,7.083333333333334,572.2222222222222,61.791666666666664,600,57C627.7777777777778,52.208333333333336,638.8888888888889,-16.541666666666668,666.6666666666667,-18C694.4444444444446,-19.458333333333332,707.6388888888889,44.166666666666664,733.3333333333334,50C759.0277777777778,55.833333333333336,778.1944444444445,18.333333333333336,790,10" transform="matrix(1,0,0,1,0,210)"></path><path d="M10,10C21.805555555555557,16.458333333333336,40.97222222222223,47.041666666666664,66.66666666666667,41C92.36111111111111,34.958333333333336,105.55555555555557,-19,133.33333333333334,-19C161.11111111111111,-19,172.22222222222223,39.541666666666664,200,41C227.77777777777777,42.458333333333336,238.8888888888889,-10.958333333333334,266.6666666666667,-12C294.44444444444446,-13.041666666666666,305.5555555555556,38.291666666666664,333.33333333333337,36C361.11111111111114,33.708333333333336,372.22222222222223,-25.291666666666668,400,-23C427.77777777777777,-20.708333333333332,438.8888888888889,41.166666666666664,466.6666666666667,47C494.44444444444446,52.833333333333336,505.5555555555556,2.9166666666666665,533.3333333333334,5C561.1111111111111,7.083333333333334,572.2222222222222,61.791666666666664,600,57C627.7777777777778,52.208333333333336,638.8888888888889,-16.541666666666668,666.6666666666667,-18C694.4444444444446,-19.458333333333332,707.6388888888889,44.166666666666664,733.3333333333334,50C759.0277777777778,55.833333333333336,778.1944444444445,18.333333333333336,790,10" transform="matrix(1,0,0,1,0,175)"></path><path d="M10,10C21.805555555555557,16.458333333333336,40.97222222222223,47.041666666666664,66.66666666666667,41C92.36111111111111,34.958333333333336,105.55555555555557,-19,133.33333333333334,-19C161.11111111111111,-19,172.22222222222223,39.541666666666664,200,41C227.77777777777777,42.458333333333336,238.8888888888889,-10.958333333333334,266.6666666666667,-12C294.44444444444446,-13.041666666666666,305.5555555555556,38.291666666666664,333.33333333333337,36C361.11111111111114,33.708333333333336,372.22222222222223,-25.291666666666668,400,-23C427.77777777777777,-20.708333333333332,438.8888888888889,41.166666666666664,466.6666666666667,47C494.44444444444446,52.833333333333336,505.5555555555556,2.9166666666666665,533.3333333333334,5C561.1111111111111,7.083333333333334,572.2222222222222,61.791666666666664,600,57C627.7777777777778,52.208333333333336,638.8888888888889,-16.541666666666668,666.6666666666667,-18C694.4444444444446,-19.458333333333332,707.6388888888889,44.166666666666664,733.3333333333334,50C759.0277777777778,55.833333333333336,778.1944444444445,18.333333333333336,790,10" transform="matrix(1,0,0,1,0,140)"></path><path d="M10,10C21.805555555555557,16.458333333333336,40.97222222222223,47.041666666666664,66.66666666666667,41C92.36111111111111,34.958333333333336,105.55555555555557,-19,133.33333333333334,-19C161.11111111111111,-19,172.22222222222223,39.541666666666664,200,41C227.77777777777777,42.458333333333336,238.8888888888889,-10.958333333333334,266.6666666666667,-12C294.44444444444446,-13.041666666666666,305.5555555555556,38.291666666666664,333.33333333333337,36C361.11111111111114,33.708333333333336,372.22222222222223,-25.291666666666668,400,-23C427.77777777777777,-20.708333333333332,438.8888888888889,41.166666666666664,466.6666666666667,47C494.44444444444446,52.833333333333336,505.5555555555556,2.9166666666666665,533.3333333333334,5C561.1111111111111,7.083333333333334,572.2222222222222,61.791666666666664,600,57C627.7777777777778,52.208333333333336,638.8888888888889,-16.541666666666668,666.6666666666667,-18C694.4444444444446,-19.458333333333332,707.6388888888889,44.166666666666664,733.3333333333334,50C759.0277777777778,55.833333333333336,778.1944444444445,18.333333333333336,790,10" transform="matrix(1,0,0,1,0,105)"></path><path d="M10,10C21.805555555555557,16.458333333333336,40.97222222222223,47.041666666666664,66.66666666666667,41C92.36111111111111,34.958333333333336,105.55555555555557,-19,133.33333333333334,-19C161.11111111111111,-19,172.22222222222223,39.541666666666664,200,41C227.77777777777777,42.458333333333336,238.8888888888889,-10.958333333333334,266.6666666666667,-12C294.44444444444446,-13.041666666666666,305.5555555555556,38.291666666666664,333.33333333333337,36C361.11111111111114,33.708333333333336,372.22222222222223,-25.291666666666668,400,-23C427.77777777777777,-20.708333333333332,438.8888888888889,41.166666666666664,466.6666666666667,47C494.44444444444446,52.833333333333336,505.5555555555556,2.9166666666666665,533.3333333333334,5C561.1111111111111,7.083333333333334,572.2222222222222,61.791666666666664,600,57C627.7777777777778,52.208333333333336,638.8888888888889,-16.541666666666668,666.6666666666667,-18C694.4444444444446,-19.458333333333332,707.6388888888889,44.166666666666664,733.3333333333334,50C759.0277777777778,55.833333333333336,778.1944444444445,18.333333333333336,790,10" transform="matrix(1,0,0,1,0,70)"></path><path d="M10,10C21.805555555555557,16.458333333333336,40.97222222222223,47.041666666666664,66.66666666666667,41C92.36111111111111,34.958333333333336,105.55555555555557,-19,133.33333333333334,-19C161.11111111111111,-19,172.22222222222223,39.541666666666664,200,41C227.77777777777777,42.458333333333336,238.8888888888889,-10.958333333333334,266.6666666666667,-12C294.44444444444446,-13.041666666666666,305.5555555555556,38.291666666666664,333.33333333333337,36C361.11111111111114,33.708333333333336,372.22222222222223,-25.291666666666668,400,-23C427.77777777777777,-20.708333333333332,438.8888888888889,41.166666666666664,466.6666666666667,47C494.44444444444446,52.833333333333336,505.5555555555556,2.9166666666666665,533.3333333333334,5C561.1111111111111,7.083333333333334,572.2222222222222,61.791666666666664,600,57C627.7777777777778,52.208333333333336,638.8888888888889,-16.541666666666668,666.6666666666667,-18C694.4444444444446,-19.458333333333332,707.6388888888889,44.166666666666664,733.3333333333334,50C759.0277777777778,55.833333333333336,778.1944444444445,18.333333333333336,790,10" transform="matrix(1,0,0,1,0,35)"></path></g></svg>