<!--?xml version="1.0" standalone="no"?-->
<svg id="sw-js-blob-svg" viewBox="0 0 100 100" xmlns="http://www.w3.org/2000/svg">
    <defs>
        <linearGradient id="sw-gradient" x1="0" x2="1" y1="1" y2="0">
            <stop id="stop1" stop-color="rgba(248, 117, 55, 1)" offset="0%"></stop>
            <stop id="stop2" stop-color="rgba(194, 65, 12, 1)" offset="100%"></stop>
        </linearGradient>
    </defs>
    <path fill="url(#sw-gradient)"
        d="M20.4,-25.3C25.7,-19.8,28.9,-12.7,31.2,-4.7C33.5,3.3,35.1,12.2,31.8,18.9C28.6,25.5,20.5,29.8,12.5,31.6C4.5,33.3,-3.5,32.5,-10.6,29.7C-17.7,26.9,-24,22.2,-28.7,15.7C-33.4,9.3,-36.7,1.1,-36.4,-7.4C-36.1,-16,-32.3,-25,-25.6,-30.2C-19,-35.5,-9.5,-37,-1,-35.8C7.5,-34.7,15.1,-30.8,20.4,-25.3Z"
        width="100%" height="100%" transform="translate(50 50)" style="transition: 0.3s;"
        stroke-width="0"></path>
</svg>